<svg width="30" height="30" viewBox="0 0 30 30" fill="none" xmlns="http://www.w3.org/2000/svg">
<rect width="30" height="30" rx="5" fill="#F9F1E7"/>
<path d="M11.706 15.476L14.488 20H13.149L10.978 16.464L8.911 20H7.598L10.367 15.476L7.585 10.939H8.911L11.095 14.488L13.175 10.939H14.501L11.706 15.476ZM18.9482 20.091C18.3502 20.091 17.8129 19.987 17.3362 19.779C16.8682 19.5623 16.4999 19.2677 16.2312 18.895C15.9626 18.5137 15.8239 18.076 15.8152 17.582H17.0762C17.1196 18.0067 17.2929 18.3663 17.5962 18.661C17.9082 18.947 18.3589 19.09 18.9482 19.09C19.5116 19.09 19.9536 18.9513 20.2742 18.674C20.6036 18.388 20.7682 18.024 20.7682 17.582C20.7682 17.2353 20.6729 16.9537 20.4822 16.737C20.2916 16.5203 20.0532 16.3557 19.7672 16.243C19.4812 16.1303 19.0956 16.009 18.6102 15.879C18.0122 15.723 17.5312 15.567 17.1672 15.411C16.8119 15.255 16.5042 15.0123 16.2442 14.683C15.9929 14.345 15.8672 13.8943 15.8672 13.331C15.8672 12.837 15.9929 12.3993 16.2442 12.018C16.4956 11.6367 16.8466 11.342 17.2972 11.134C17.7566 10.926 18.2809 10.822 18.8702 10.822C19.7196 10.822 20.4129 11.0343 20.9502 11.459C21.4962 11.8837 21.8039 12.447 21.8732 13.149H20.5732C20.5299 12.8023 20.3479 12.499 20.0272 12.239C19.7066 11.9703 19.2819 11.836 18.7532 11.836C18.2592 11.836 17.8562 11.966 17.5442 12.226C17.2322 12.4773 17.0762 12.8327 17.0762 13.292C17.0762 13.6213 17.1672 13.89 17.3492 14.098C17.5399 14.306 17.7696 14.4663 18.0382 14.579C18.3156 14.683 18.7012 14.8043 19.1952 14.943C19.7932 15.1077 20.2742 15.2723 20.6382 15.437C21.0022 15.593 21.3142 15.84 21.5742 16.178C21.8342 16.5073 21.9642 16.958 21.9642 17.53C21.9642 17.972 21.8472 18.388 21.6132 18.778C21.3792 19.168 21.0326 19.4843 20.5732 19.727C20.1139 19.9697 19.5722 20.091 18.9482 20.091Z" fill="black"/>
</svg>
